<?xml version="1.0" encoding="UTF-8" standalone="no"?>
<svg
   xmlns:dc="http://purl.org/dc/elements/1.1/"
   xmlns:cc="http://creativecommons.org/ns#"
   xmlns:rdf="http://www.w3.org/1999/02/22-rdf-syntax-ns#"
   xmlns:svg="http://www.w3.org/2000/svg"
   xmlns="http://www.w3.org/2000/svg"
   xmlns:sodipodi="http://sodipodi.sourceforge.net/DTD/sodipodi-0.dtd"
   xmlns:inkscape="http://www.inkscape.org/namespaces/inkscape"
   inkscape:version="1.0 (4035a4fb49, 2020-05-01)"
   sodipodi:docname="fa-instagram.svg"
   id="svg845"
   version="1.1"
   viewBox="0 0 448 512">
  <metadata
     id="metadata851">
    <rdf:RDF>
      <cc:Work
         rdf:about="">
        <dc:format>image/svg+xml</dc:format>
        <dc:type
           rdf:resource="http://purl.org/dc/dcmitype/StillImage" />
        <dc:title></dc:title>
      </cc:Work>
    </rdf:RDF>
  </metadata>
  <defs
     id="defs849" />
  <sodipodi:namedview
     inkscape:current-layer="svg845"
     inkscape:window-maximized="1"
     inkscape:window-y="-8"
     inkscape:window-x="-8"
     inkscape:cy="295.70869"
     inkscape:cx="193.34808"
     inkscape:zoom="1.2549906"
     showgrid="false"
     id="namedview847"
     inkscape:window-height="996"
     inkscape:window-width="1920"
     inkscape:pageshadow="2"
     inkscape:pageopacity="0"
     guidetolerance="10"
     gridtolerance="10"
     objecttolerance="10"
     borderopacity="1"
     bordercolor="#666666"
     pagecolor="#ffffff" />
  <!--! Font Awesome Pro 6.3.0 by @fontawesome - https://fontawesome.com License - https://fontawesome.com/license (Commercial License) Copyright 2023 Fonticons, Inc. -->
  <path
     inkscape:export-ydpi="96"
     inkscape:export-xdpi="96"
     style="fill:#2690fd;fill-opacity:1;stroke-width:0.0713888"
     id="path843"
     d="m 15.92857,39.618865 c -4.540324,0 -8.2025662,3.662242 -8.2025662,8.202566 0,4.540323 3.6622422,8.202565 8.2025662,8.202565 4.540323,0 8.202565,-3.662242 8.202565,-8.202565 0,-4.540324 -3.662242,-8.202566 -8.202565,-8.202566 z m 0,13.535304 c -2.934078,0 -5.332739,-2.391522 -5.332739,-5.332738 0,-2.941216 2.391523,-5.332739 5.332739,-5.332739 2.941215,0 5.332738,2.391523 5.332738,5.332739 0,2.941216 -2.398662,5.332738 -5.332738,5.332738 z M 26.37988,39.283338 c 0,1.063692 -0.856664,1.913218 -1.913218,1.913218 -1.063692,0 -1.913218,-0.856665 -1.913218,-1.913218 0,-1.056553 0.856665,-1.913218 1.913218,-1.913218 1.056554,0 1.913218,0.856665 1.913218,1.913218 z m 5.432683,1.941774 c -0.121361,-2.562856 -0.706748,-4.833017 -2.584272,-6.703403 -1.870385,-1.870384 -4.140547,-2.455772 -6.703402,-2.584272 -2.641384,-0.149916 -10.558394,-0.149916 -13.1997775,0 -2.5557168,0.121361 -4.8258784,0.706749 -6.703402,2.577134 -1.87752379,1.870384 -2.45577252,4.140546 -2.58427225,6.703402 -0.14991633,2.641383 -0.14991633,10.558394 0,13.199777 0.12136085,2.562856 0.70674846,4.833017 2.58427225,6.703402 1.8775236,1.870385 4.1405465,2.455773 6.703402,2.584272 2.6413835,0.149917 10.5583935,0.149917 13.1997775,0 2.562855,-0.121361 4.833017,-0.706749 6.703402,-2.584272 1.870384,-1.870385 2.455772,-4.140546 2.584272,-6.703402 0.149916,-2.641383 0.149916,-10.551255 0,-13.192638 z m -3.412382,16.02677 c -0.556832,1.39922 -1.634802,2.47719 -3.04116,3.04116 -2.105968,0.835249 -7.103179,0.642499 -9.430451,0.642499 -2.327273,0 -7.3316233,0.185611 -9.4304521,-0.642499 C 5.0988985,59.73621 4.0209286,58.658241 3.4569576,57.251882 2.6217095,55.145915 2.814459,50.148704 2.814459,47.821431 c 0,-2.327273 -0.1856107,-7.331623 0.6424986,-9.430452 0.5568322,-1.399219 1.634802,-2.477189 3.0411603,-3.04116 2.1059675,-0.835248 7.1031791,-0.642499 9.4304521,-0.642499 2.327272,0 7.331623,-0.185611 9.430451,0.642499 1.39922,0.556832 2.477189,1.634802 3.04116,3.04116 0.835248,2.105968 0.642499,7.103179 0.642499,9.430452 0,2.327273 0.192749,7.331623 -0.642499,9.430451 z" />
</svg>
