<?xml version="1.0" encoding="UTF-8" standalone="no"?>
<svg
   xmlns:dc="http://purl.org/dc/elements/1.1/"
   xmlns:cc="http://creativecommons.org/ns#"
   xmlns:rdf="http://www.w3.org/1999/02/22-rdf-syntax-ns#"
   xmlns:svg="http://www.w3.org/2000/svg"
   xmlns="http://www.w3.org/2000/svg"
   xmlns:sodipodi="http://sodipodi.sourceforge.net/DTD/sodipodi-0.dtd"
   xmlns:inkscape="http://www.inkscape.org/namespaces/inkscape"
   viewBox="0 0 448 512"
   version="1.1"
   id="svg845"
   sodipodi:docname="fa-iconos.svg"
   inkscape:version="1.0 (4035a4fb49, 2020-05-01)">
  <metadata
     id="metadata851">
    <rdf:RDF>
      <cc:Work
         rdf:about="">
        <dc:format>image/svg+xml</dc:format>
        <dc:type
           rdf:resource="http://purl.org/dc/dcmitype/StillImage" />
        <dc:title />
      </cc:Work>
    </rdf:RDF>
  </metadata>
  <defs
     id="defs849" />
  <sodipodi:namedview
     inkscape:document-rotation="0"
     pagecolor="#ffffff"
     bordercolor="#666666"
     borderopacity="1"
     objecttolerance="10"
     gridtolerance="10"
     guidetolerance="10"
     inkscape:pageopacity="0"
     inkscape:pageshadow="2"
     inkscape:window-width="1920"
     inkscape:window-height="996"
     id="namedview847"
     showgrid="false"
     inkscape:zoom="1.220992"
     inkscape:cx="193.34808"
     inkscape:cy="295.70869"
     inkscape:window-x="-8"
     inkscape:window-y="-8"
     inkscape:window-maximized="1"
     inkscape:current-layer="svg845" />
  <!--! Font Awesome Pro 6.3.0 by @fontawesome - https://fontawesome.com License - https://fontawesome.com/license (Commercial License) Copyright 2023 Fonticons, Inc. -->
  <path
     d="m 18.319026,10.136573 c -4.540324,0 -8.202566,3.662242 -8.202566,8.202566 0,4.540323 3.662242,8.202565 8.202566,8.202565 4.540323,0 8.202565,-3.662242 8.202565,-8.202565 0,-4.540324 -3.662242,-8.202566 -8.202565,-8.202566 z m 0,13.535304 c -2.934078,0 -5.332739,-2.391522 -5.332739,-5.332738 0,-2.941216 2.391523,-5.332739 5.332739,-5.332739 2.941215,0 5.332738,2.391523 5.332738,5.332739 0,2.941216 -2.398662,5.332738 -5.332738,5.332738 z M 28.770336,9.8010461 c 0,1.0636919 -0.856664,1.9132179 -1.913218,1.9132179 -1.063692,0 -1.913218,-0.856665 -1.913218,-1.9132179 0,-1.056553 0.856665,-1.913218 1.913218,-1.913218 1.056554,0 1.913218,0.856665 1.913218,1.913218 z M 34.203019,11.74282 C 34.081658,9.1799641 33.496271,6.9098031 31.618747,5.0394171 29.748362,3.1690331 27.4782,2.5836451 24.915345,2.4551451 c -2.641384,-0.149916 -10.558394,-0.149916 -13.199777,0 -2.5557172,0.121361 -4.8258788,0.706749 -6.7034024,2.577134 -1.8775238,1.870384 -2.4557725,4.140546 -2.5842723,6.7034019 -0.1499163,2.641383 -0.1499163,10.558394 0,13.199777 0.1213609,2.562856 0.7067485,4.833017 2.5842723,6.703402 1.8775236,1.870385 4.1405465,2.455773 6.7034024,2.584272 2.641383,0.149917 10.558393,0.149917 13.199777,0 2.562855,-0.121361 4.833017,-0.706749 6.703402,-2.584272 1.870384,-1.870385 2.455772,-4.140546 2.584272,-6.703402 0.149916,-2.641383 0.149916,-10.551255 0,-13.192638 z m -3.412382,16.02677 c -0.556832,1.39922 -1.634802,2.47719 -3.04116,3.04116 -2.105968,0.835249 -7.103179,0.642499 -9.430451,0.642499 -2.327273,0 -7.331623,0.185611 -9.430452,-0.642499 C 7.4893546,30.253918 6.4113847,29.175949 5.8474137,27.76959 5.0121656,25.663623 5.2049151,20.666412 5.2049151,18.339139 c 0,-2.327273 -0.1856107,-7.331623 0.6424986,-9.4304519 0.5568322,-1.399219 1.634802,-2.477189 3.0411603,-3.04116 2.105967,-0.835248 7.103179,-0.642499 9.430452,-0.642499 2.327272,0 7.331623,-0.185611 9.430451,0.642499 1.39922,0.556832 2.477189,1.634802 3.04116,3.04116 0.835248,2.1059679 0.642499,7.1031789 0.642499,9.4304519 0,2.327273 0.192749,7.331623 -0.642499,9.430451 z"
     id="path843"
     style="fill:#2690fd;fill-opacity:1;stroke-width:0.0713888"
     inkscape:export-xdpi="96"
     inkscape:export-ydpi="96" />
  <path
     inkscape:export-ydpi="96"
     inkscape:export-xdpi="96"
     style="fill:#2690fd;fill-opacity:1;stroke-width:0.0714286"
     id="path863"
     d="M 77.910563,-0.06362633 H 52.767703 A 3.4285714,3.4285714 0 0 0 49.339133,3.3649487 V 28.507799 a 3.4285714,3.4285714 0 0 0 3.42857,3.42858 h 9.80357 v -10.87929 h -4.5 v -5.12071 h 4.5 v -3.90286 c 0,-4.4392903 2.64286,-6.8914303 6.69072,-6.8914303 1.93857,0 3.96571,0.34571 3.96571,0.34571 v 4.35715 h -2.23357 c -2.20071,0 -2.88714,1.3657103 -2.88714,2.7664303 v 3.325 h 4.91285 l -0.78571,5.12071 h -4.12714 v 10.87929 h 9.80357 a 3.4285714,3.4285714 0 0 0 3.42857,-3.42858 V 3.3649487 a 3.4285714,3.4285714 0 0 0 -3.42857,-3.42857503 z" />
  <path
     inkscape:export-ydpi="96"
     inkscape:export-xdpi="96"
     style="fill:#2690fd;fill-opacity:1;stroke-width:0.0625002"
     id="path1444"
     d="m 117.09399,8.6217473 c 0.0203,0.284251 0.0203,0.568565 0.0203,0.852816 0,8.6700337 -6.59896,18.6599477 -18.659944,18.6599477 -3.71577,0 -7.16753,-1.076192 -10.07111,-2.944136 0.52794,0.06087 1.03551,0.08119 1.58376,0.08119 3.06595,0 5.88833,-1.035504 8.14216,-2.802011 -2.88327,-0.06094 -5.29952,-1.949257 -6.13203,-4.548267 0.40613,0.06087 0.81219,0.1015 1.23863,0.1015 0.58882,0 1.17769,-0.08125 1.72588,-0.223313 -3.00507,-0.60919 -5.25895,-3.248763 -5.25895,-6.436588 v -0.08119 c 0.87306,0.487315 1.88838,0.791878 2.96444,0.832441 -1.7665,-1.177692 -2.92382,-3.1878247 -2.92382,-5.4619587 0,-1.218255 0.32481,-2.335009 0.89338,-3.309638 3.22845,3.979703 8.08128,6.578651 13.522874,6.8629637 -0.10151,-0.4873137 -0.16244,-0.9948777 -0.16244,-1.5025047 0,-3.614264 2.92388,-6.558401 6.5584,-6.558401 1.88832,0 3.59389,0.791878 4.79189,2.071071 1.48219,-0.284252 2.90351,-0.832504 4.16246,-1.583757 -0.48738,1.522881 -1.52289,2.802074 -2.88327,3.614202 1.31982,-0.142063 2.59901,-0.507627 3.77664,-1.015191 -0.89325,1.299442 -2.01007,2.456759 -3.28926,3.390825 z" />
  <path
     d="m 161.93343,6.1935993 c -0.36803,-1.38574 -1.45236,-2.4771 -2.82914,-2.84747 -2.4955,-0.67301 -12.50219,-0.67301 -12.50219,-0.67301 0,0 -10.00663,0 -12.50219,0.67301 -1.37678,0.37042 -2.46111,1.46173 -2.82914,2.84747 -0.66867,2.51174 -0.66867,7.7522397 -0.66867,7.7522397 0,0 0,5.2405 0.66867,7.75224 0.36803,1.38574 1.45236,2.43163 2.82914,2.802 2.49556,0.67301 12.50219,0.67301 12.50219,0.67301 0,0 10.00663,0 12.50219,-0.67301 1.37678,-0.37037 2.46111,-1.41626 2.82914,-2.802 0.66867,-2.51174 0.66867,-7.75224 0.66867,-7.75224 0,0 0,-5.2404997 -0.66867,-7.7522397 z M 143.32935,18.703819 V 9.1878593 l 8.3636,4.7580997 z"
     id="path843-0"
     style="fill:#2690fd;fill-opacity:1;stroke-width:0.0585937"
     inkscape:export-xdpi="96"
     inkscape:export-ydpi="96" />
</svg>
