<?xml version="1.0" encoding="UTF-8" standalone="no"?>
<svg
   xmlns:dc="http://purl.org/dc/elements/1.1/"
   xmlns:cc="http://creativecommons.org/ns#"
   xmlns:rdf="http://www.w3.org/1999/02/22-rdf-syntax-ns#"
   xmlns:svg="http://www.w3.org/2000/svg"
   xmlns="http://www.w3.org/2000/svg"
   xmlns:sodipodi="http://sodipodi.sourceforge.net/DTD/sodipodi-0.dtd"
   xmlns:inkscape="http://www.inkscape.org/namespaces/inkscape"
   inkscape:version="1.0 (4035a4fb49, 2020-05-01)"
   sodipodi:docname="fa-youtube.svg"
   id="svg845"
   version="1.1"
   viewBox="0 0 576 512">
  <metadata
     id="metadata851">
    <rdf:RDF>
      <cc:Work
         rdf:about="">
        <dc:format>image/svg+xml</dc:format>
        <dc:type
           rdf:resource="http://purl.org/dc/dcmitype/StillImage" />
      </cc:Work>
    </rdf:RDF>
  </metadata>
  <defs
     id="defs849" />
  <sodipodi:namedview
     inkscape:current-layer="svg845"
     inkscape:window-maximized="1"
     inkscape:window-y="-8"
     inkscape:window-x="-8"
     inkscape:cy="256"
     inkscape:cx="288"
     inkscape:zoom="1.5742187"
     showgrid="false"
     id="namedview847"
     inkscape:window-height="996"
     inkscape:window-width="1920"
     inkscape:pageshadow="2"
     inkscape:pageopacity="0"
     guidetolerance="10"
     gridtolerance="10"
     objecttolerance="10"
     borderopacity="1"
     bordercolor="#666666"
     pagecolor="#ffffff" />
  <!--! Font Awesome Pro 6.3.0 by @fontawesome - https://fontawesome.com License - https://fontawesome.com/license (Commercial License) Copyright 2023 Fonticons, Inc. -->
  <path
     inkscape:export-ydpi="96"
     inkscape:export-xdpi="96"
     style="fill:#2690fd;fill-opacity:1;stroke-width:0.0585937"
     id="path843"
     d="M 46.264329,67.520484 C 45.896302,66.134743 44.811967,65.043378 43.435192,64.673007 40.939687,64 30.933,64 30.933,64 c 0,0 -10.006628,0 -12.502192,0.673007 -1.376775,0.370429 -2.46111,1.461736 -2.829137,2.847477 C 14.933,70.032219 14.933,75.272721 14.933,75.272721 c 0,0 0,5.240501 0.668671,7.752236 0.368027,1.385741 1.452362,2.431638 2.829137,2.802009 2.495564,0.673007 12.502192,0.673007 12.502192,0.673007 0,0 10.006628,0 12.502192,-0.673007 1.376775,-0.370371 2.46111,-1.416268 2.829137,-2.802009 C 46.933,80.513222 46.933,75.272721 46.933,75.272721 c 0,0 0,-5.240502 -0.668671,-7.752237 z M 27.66025,80.030703 v -9.515965 l 8.363603,4.7581 z" />
</svg>
