<?xml version="1.0" encoding="UTF-8" standalone="no"?>
<svg
   xmlns:dc="http://purl.org/dc/elements/1.1/"
   xmlns:cc="http://creativecommons.org/ns#"
   xmlns:rdf="http://www.w3.org/1999/02/22-rdf-syntax-ns#"
   xmlns:svg="http://www.w3.org/2000/svg"
   xmlns="http://www.w3.org/2000/svg"
   xmlns:xlink="http://www.w3.org/1999/xlink"
   xmlns:sodipodi="http://sodipodi.sourceforge.net/DTD/sodipodi-0.dtd"
   xmlns:inkscape="http://www.inkscape.org/namespaces/inkscape"
   inkscape:version="1.0 (4035a4fb49, 2020-05-01)"
   sodipodi:docname="red-wave.svg"
   id="svg855"
   version="1.1"
   viewBox="0 0 1946.265 939.841"
   height="939.841"
   width="1946.265"
   class="red-svg">
  <metadata
     id="metadata859">
    <rdf:RDF>
      <cc:Work
         rdf:about="">
        <dc:format>image/svg+xml</dc:format>
        <dc:type
           rdf:resource="http://purl.org/dc/dcmitype/StillImage" />
      </cc:Work>
    </rdf:RDF>
  </metadata>
  <sodipodi:namedview
     inkscape:current-layer="svg855"
     inkscape:window-maximized="1"
     inkscape:window-y="-8"
     inkscape:window-x="-8"
     inkscape:cy="390.73147"
     inkscape:cx="898.83303"
     inkscape:zoom="0.42689483"
     showgrid="false"
     id="namedview857"
     inkscape:window-height="996"
     inkscape:window-width="1920"
     inkscape:pageshadow="2"
     inkscape:pageopacity="0"
     guidetolerance="10"
     gridtolerance="10"
     objecttolerance="10"
     borderopacity="1"
     bordercolor="#666666"
     pagecolor="#ffffff" />
  <defs
     id="defs852">
    <linearGradient
       y1="-2321.4365"
       gradientTransform="matrix(1.4565868,0,0,0.69490641,-5910.6326,2395.8282)"
       gradientUnits="userSpaceOnUse"
       y2="-2094.0359"
       x2="4717.8114"
       x1="4471.4888"
       id="linear-gradient1">
      <stop
         id="stop847"
         stop-color="#cf3744"
         offset="0" />
      <stop
         id="stop849"
         stop-color="#ae1e2a"
         offset="1" />
    </linearGradient>
    <linearGradient
       gradientUnits="userSpaceOnUse"
       y2="469.9205"
       x2="1946.265"
       y1="469.9205"
       x1="1.4218976"
       id="linearGradient875"
       xlink:href="#linear-gradient1"
       inkscape:collect="always" />
  </defs>
  <path
     inkscape:export-ydpi="96"
     inkscape:export-xdpi="96"
     sodipodi:nodetypes="cccccccccccccsccscccccccccccccscccccccccccscc"
     style="fill:url(#linearGradient875);stroke-width:1.00608;fill-opacity:1.0"
     fill="url(#linear-gradient1)"
     d="M 1.4218976,939.0128 V 797.9824 L 2.8572863,774.7832 V 0.82820374 H 1946.265 V 91.528204 c -4.2887,1.089 -8.4012,2.053 -12.3852,2.984 -21.8026,5.099995 -39.022,9.130996 -52.309,26.175996 -14.1515,18.158 -22.9181,50.3 -28.4294,104.216 -0.9996,10.377 -2.7056,20.6756 -5.1065,30.826 -1.9966,8.4559 -4.8099,16.7031 -8.4012,24.628 -6.6036,14.246 -15.4491,25.118 -27.0438,33.24 -10.9033,7.635 -24.409,12.925 -41.2862,16.171 -15.0706,2.9 -32.9357,4.247 -56.2263,4.247 -24.4464,0 -51.9558,-1.469 -83.8094,-3.166 -10.2788,-0.549 -20.9089,-1.116 -32.044,-1.664 -4.0538,-0.2 -8.1552,-0.3 -12.1837,-0.3 -9.4528,-2e-4 -18.8971,0.5527 -28.2837,1.656 -8.9499,1.0585 -17.8314,2.62 -26.6014,4.677 -16.566,3.9205 -32.6799,9.5142 -48.0872,16.693 -26.3251,12.222 -51.6066,29.266 -75.138,50.658 -9.3865,8.5458 -18.3089,17.5761 -26.73,27.053 -6.7968,7.642 -13.288,15.583 -19.2923,23.6 -5.6248,7.3901 -10.8408,15.0753 -15.6252,23.022 -0.055,0.08 -5.4416,7.862 -17.8227,19.533 -7.6306,7.1453 -15.6905,13.8295 -24.1357,20.016 -11.4675,8.402 -23.4699,16.0672 -35.9328,22.948 -32.7049,18.142 -70.4607,32.6 -112.2186,42.965 -25.9236,6.3596 -52.2292,11.0887 -78.7587,14.159 -14.7628,1.742 -30.0995,3.078 -45.583,3.968 -16.187,0.931 -32.98429,1.4 -49.92638,1.4 -18.87433,0 -38.46328,-0.584 -58.22429,-1.74 -20.60518,-1.2 -41.97862,-3.058 -63.52413,-5.517 -22.40587,-2.554 -45.62756,-5.831 -69.01931,-9.738 -24.27741,-4.056 -49.41418,-8.9 -74.71593,-14.408 -28.70079,-6.274 -57.7183,-11.0397 -86.93004,-14.277 -26.89798,-2.9616 -53.94019,-4.4619 -81.00467,-4.494 -22.82189,0 -45.66098,1.122 -67.88566,3.335 -21.25603,2.116 -42.51205,5.285 -63.17897,9.421 -19.70434,3.943 -39.39146,8.87 -58.51581,14.64 -14.00569,4.227 -27.99316,8.991 -41.73063,14.214 -19.61526,9.22 -45.80672,26.428 -60.15758,56.294 -24.89991,51.819 -52.39508,125.67 -172.924816,156.972 -120.529739,31.302 -39.50968,131.4142 -39.50968,131.4142 z"
     data-name="Union 35"
     id="Union_35" />
</svg>
